<svg width="32" height="32" viewBox="0 0 32 32" fill="none" xmlns="http://www.w3.org/2000/svg">
<g clip-path="url(#clip0_3269_204)">
<path d="M22.122 10.0399C22.128 10.0399 22.136 10.0399 22.144 10.0399C22.353 10.0399 22.547 10.1049 22.706 10.2169L22.703 10.2149C22.819 10.3159 22.897 10.4579 22.916 10.6179V10.6209C22.936 10.7429 22.947 10.8829 22.947 11.0259C22.947 11.0909 22.945 11.1549 22.94 11.2189V11.2099C22.715 13.5789 21.739 19.3239 21.243 21.9759C21.033 23.0989 20.62 23.4749 20.22 23.5109C19.351 23.5919 18.691 22.9369 17.849 22.3849C16.531 21.5199 15.786 20.9819 14.507 20.1389C13.028 19.1659 13.987 18.6289 14.829 17.7549C15.05 17.5249 18.881 14.0399 18.956 13.7239C18.96 13.7049 18.962 13.6839 18.962 13.6619C18.962 13.5839 18.933 13.5129 18.886 13.4589C18.834 13.4249 18.769 13.4059 18.701 13.4059C18.656 13.4059 18.613 13.4149 18.573 13.4299L18.575 13.4289C18.443 13.4589 16.3377 14.8502 12.259 17.6029C11.814 17.9539 11.252 18.1759 10.64 18.2019H10.634C9.76703 18.0969 8.98003 17.9039 8.23303 17.6289L8.30703 17.6529C7.36903 17.3469 6.62403 17.1859 6.68803 16.6679C6.72203 16.3986 7.09336 16.1229 7.80203 15.8409C12.1674 13.9389 15.0784 12.6852 16.535 12.0799C18.142 11.2269 20.005 10.5249 21.964 10.0699L22.121 10.0389L22.122 10.0399ZM15.93 1.0249C7.62803 1.0449 0.905029 7.7799 0.905029 16.0849C0.905029 24.4019 7.64703 31.1449 15.965 31.1449C24.283 31.1449 31.025 24.4029 31.025 16.0849C31.025 7.7799 24.302 1.0449 16.002 1.0249H16C15.9767 1.0249 15.9534 1.0249 15.93 1.0249Z" fill="#0A0A0B"/>
</g>
<defs>
<clipPath id="clip0_3269_204">
<rect width="32" height="32" fill="white"/>
</clipPath>
</defs>
</svg>
